<svg height="52" viewBox="0 0 52 52" width="52" xmlns="http://www.w3.org/2000/svg"><g fill="#fff"><path d="m15.1 2.1a1.63 1.63 0 0 1 1.7 1.7v1.1a1.63 1.63 0 0 1 -1.7 1.7h-5.1a3.4 3.4 0 0 0 -3.4 3.2v32.2a3.4 3.4 0 0 0 3.2 3.4h32.2a3.4 3.4 0 0 0 3.4-3.2v-5.3a1.63 1.63 0 0 1 1.7-1.7h1.1a1.63 1.63 0 0 1 1.7 1.7v6.2a6.81 6.81 0 0 1 -6.8 6.8h-34.2a6.81 6.81 0 0 1 -6.8-6.8v-34.2a6.81 6.81 0 0 1 6.8-6.8z" fill-rule="evenodd"/><path d="m29.7 4.9 8.4.2a4 4 0 0 1 1.8.7l3.3 3.3 3.3 3.3a2.41 2.41 0 0 1 .7 1.8l.2 8.4a2.64 2.64 0 0 1 -.7 1.9l-13.8 13.9a2.53 2.53 0 0 1 -3.6 0l-7.6-7.6-7.6-7.6a2.53 2.53 0 0 1 0-3.6l13.8-13.9a2.34 2.34 0 0 1 1.8-.8zm-4.7 13.5-1.4 1.4a.75.75 0 0 0 0 .9l8.1 8.1a.75.75 0 0 0 .9 0l1.4-1.4a.75.75 0 0 0 0-.9l-8.1-8.1a.56.56 0 0 0 -.9 0zm3.8-3.8-1.3 1.4a.75.75 0 0 0 0 .9l8.1 8.1a.75.75 0 0 0 .9 0l1.4-1.4a.75.75 0 0 0 0-.9l-8.1-8.1c-.3-.3-.6-.3-1 0zm13.1-4.1a2.55 2.55 0 1 0 0 3.6 2.54 2.54 0 0 0 0-3.6z"/></g></svg>